<svg xmlns="http://www.w3.org/2000/svg" viewBox="-130 -64 1400 1400"><path fill="#1D68F7" fill-rule="evenodd" d="M 545 26 C 534 27,523 29,521 30 C 520 30,514 33,507 36 C 500 39,492 43,488 45 C 485 47,479 51,474 53 C 470 55,466 58,465 58 C 463 60,447 69,446 69 C 446 69,445 70,444 71 C 443 71,440 73,437 75 C 433 77,428 80,424 82 C 420 84,414 88,411 90 C 407 92,402 95,399 96 C 396 98,392 101,389 102 C 386 104,382 106,380 108 C 377 109,371 113,367 115 C 362 118,357 121,356 121 C 355 122,351 124,348 127 C 344 129,339 131,337 132 C 330 137,318 144,317 144 C 316 145,313 147,310 149 C 307 151,302 154,299 155 C 295 157,291 159,289 160 C 280 165,260 177,256 179 C 254 180,250 182,249 183 C 242 188,228 196,227 196 C 227 196,224 198,221 200 C 217 202,212 205,208 207 C 205 208,200 211,198 213 C 196 214,191 217,188 219 C 185 220,181 223,178 224 C 176 226,171 228,167 230 C 163 233,158 235,156 237 C 153 240,143 245,142 245 C 141 245,138 247,134 250 C 130 253,124 256,122 257 C 120 257,116 260,112 262 C 108 265,102 268,98 270 C 94 272,89 276,86 278 C 84 279,81 281,81 281 C 79 281,65 294,58 302 C 49 311,39 326,35 335 C 21 367,22 364,22 433 C 22 486,22 487,24 490 C 26 493,37 499,41 499 C 46 499,66 492,68 489 C 68 488,72 486,76 484 C 81 482,87 478,90 476 C 93 475,97 472,99 471 C 102 470,107 467,110 465 C 114 462,120 459,123 457 C 127 455,132 453,135 451 C 138 449,141 447,141 447 C 142 447,148 443,156 439 C 164 435,170 431,171 431 C 171 431,175 429,179 426 C 184 423,189 420,190 420 C 192 419,196 417,198 416 C 205 412,218 404,219 404 C 219 404,222 402,224 401 C 227 399,232 396,236 394 C 240 392,246 388,250 385 C 258 380,265 376,278 370 C 282 368,288 364,292 362 C 296 359,303 355,306 353 C 310 351,315 348,318 347 C 320 345,325 343,328 341 C 331 340,335 337,336 336 C 341 333,361 321,369 317 C 373 315,379 312,383 309 C 387 307,393 304,397 302 C 400 300,405 297,406 296 C 412 292,428 283,438 278 C 447 274,448 273,456 268 C 459 266,462 264,462 264 C 464 264,473 259,476 256 C 478 255,481 253,483 252 C 486 251,490 249,492 247 C 494 245,501 242,506 239 C 511 237,517 234,518 233 C 523 231,540 227,552 226 C 576 224,601 227,616 233 C 617 234,623 237,628 239 C 632 241,639 245,642 247 C 644 248,651 252,656 255 C 661 258,667 261,670 262 C 672 264,677 267,680 269 C 684 270,687 272,687 273 C 688 273,691 275,694 277 C 697 279,702 281,705 283 C 707 285,713 288,717 290 C 721 292,725 295,727 296 C 728 297,734 300,739 303 C 744 306,751 310,753 311 C 756 313,760 316,763 317 C 765 318,770 321,773 323 C 776 325,781 328,784 329 C 787 331,791 334,794 335 C 798 338,802 341,813 347 C 815 348,819 350,822 352 C 824 354,827 355,828 355 C 828 355,831 357,834 359 C 837 361,841 364,844 366 C 849 368,854 371,864 379 C 871 384,883 399,885 404 C 885 406,886 407,887 408 C 887 409,888 410,888 411 C 888 412,889 414,890 416 C 895 426,896 436,896 465 C 895 499,895 501,883 524 C 878 533,866 545,855 550 C 846 554,843 556,836 560 C 834 562,830 564,826 566 C 822 568,819 570,818 571 C 817 571,812 574,806 577 C 801 580,796 583,795 583 C 793 585,779 593,767 600 C 761 603,755 607,752 608 C 750 610,745 613,740 615 C 736 617,731 620,728 622 C 724 625,697 640,696 640 C 696 640,693 642,689 644 C 686 646,680 650,675 652 C 670 654,666 657,664 658 C 663 660,658 662,654 664 C 650 667,645 669,644 670 C 642 672,626 681,620 684 C 618 685,616 686,616 687 C 615 687,612 689,608 691 C 604 693,599 697,595 699 C 591 701,586 704,582 706 C 578 708,575 710,574 711 C 573 711,568 714,564 717 C 559 719,553 722,552 723 C 544 728,507 750,496 755 C 493 757,489 760,486 761 C 484 763,479 765,476 767 C 472 769,467 772,464 774 C 459 777,438 789,438 789 C 435 789,424 797,422 800 C 417 807,418 824,424 834 C 426 837,428 839,435 843 C 440 846,444 849,445 849 C 445 850,448 852,452 854 C 456 856,462 859,464 861 C 467 862,472 865,476 867 C 480 869,486 872,489 875 C 493 877,497 879,497 879 C 498 879,501 881,505 883 C 523 893,563 899,586 895 C 591 894,599 892,604 892 C 612 890,619 888,626 886 C 633 882,649 875,650 874 C 651 873,656 870,661 867 C 677 859,689 852,695 848 C 698 847,704 843,708 842 C 711 840,716 837,719 835 C 721 833,725 831,728 829 C 731 828,736 825,738 823 C 741 821,747 818,752 815 C 757 813,765 808,770 806 C 774 803,779 800,780 800 C 780 800,783 798,786 796 C 789 794,794 792,796 790 C 799 789,804 786,806 785 C 809 783,815 780,818 778 C 822 776,828 772,833 769 C 837 767,843 763,847 761 C 859 754,863 752,866 750 C 868 749,869 748,870 748 C 870 748,872 747,873 746 C 875 744,881 741,887 737 C 893 734,898 730,899 730 C 900 729,904 727,907 725 C 911 723,916 721,918 719 C 920 718,925 715,929 713 C 933 711,938 708,941 707 C 943 705,949 702,953 700 C 957 698,963 694,966 693 C 968 691,973 688,976 686 C 979 685,986 681,991 678 C 997 675,1001 672,1002 672 C 1002 672,1005 670,1008 668 C 1011 666,1016 663,1019 662 C 1022 660,1027 657,1029 656 C 1032 654,1037 651,1040 650 C 1043 648,1046 646,1047 646 C 1048 645,1050 644,1051 644 C 1061 639,1077 626,1083 619 C 1084 617,1088 613,1090 610 C 1098 601,1105 587,1109 575 C 1110 571,1112 566,1113 564 C 1117 552,1118 529,1118 460 C 1117 395,1116 372,1113 368 C 1113 366,1112 364,1111 362 C 1106 342,1100 330,1086 311 C 1080 303,1062 285,1060 284 C 1058 283,1056 282,1055 281 C 1053 280,1051 278,1048 277 C 1046 275,1041 273,1037 271 C 1030 267,1029 266,1020 260 C 1016 258,1011 255,1008 254 C 999 248,990 243,989 242 C 988 242,987 241,986 241 C 986 241,983 240,981 238 C 977 234,972 232,953 222 C 948 219,941 215,938 213 C 935 211,930 208,927 207 C 924 205,920 202,917 200 C 914 198,911 196,910 196 C 908 195,906 194,904 192 C 901 191,898 190,897 189 C 896 188,894 187,893 187 C 892 186,887 183,882 180 C 876 177,870 174,868 172 C 866 171,863 170,862 169 C 859 168,846 160,844 158 C 843 158,839 156,836 154 C 832 151,827 149,826 148 C 824 146,818 143,814 140 C 809 138,804 135,804 135 C 804 135,801 133,797 131 C 793 129,788 126,785 124 C 779 120,746 101,745 101 C 745 101,742 100,739 98 C 737 96,730 92,725 89 C 720 86,716 83,715 83 C 715 82,712 80,708 79 C 704 77,699 74,697 73 C 693 70,676 60,663 53 C 658 51,653 48,652 47 C 646 43,643 41,637 39 C 634 37,631 36,630 36 C 630 36,629 35,628 35 C 626 32,610 28,594 25 C 584 24,560 24,545 26 M 554 382 C 549 382,541 383,538 384 C 534 384,530 385,528 385 C 527 386,524 386,522 387 C 511 391,504 393,504 394 C 502 395,490 400,487 401 C 486 401,484 402,482 403 C 481 404,478 406,475 408 C 472 409,468 411,466 413 C 463 415,457 418,452 421 C 446 424,441 427,440 427 C 439 428,435 431,430 433 C 426 436,415 442,405 448 C 395 454,385 460,381 462 C 377 464,374 466,373 466 C 372 467,367 470,362 473 C 356 476,349 480,347 481 C 345 483,339 486,334 489 C 329 491,325 494,324 495 C 322 496,319 498,316 499 C 312 501,308 504,305 505 C 303 507,297 510,292 513 C 287 515,281 519,278 520 C 276 522,271 525,268 526 C 265 528,259 531,254 534 C 249 537,245 540,244 540 C 244 540,242 541,240 542 C 236 545,234 547,226 551 C 223 553,217 555,215 557 C 213 559,208 561,204 563 C 196 568,193 569,190 571 C 189 572,185 575,180 577 C 176 579,172 582,171 582 C 170 583,165 586,161 588 C 156 591,150 594,149 595 C 148 596,142 599,138 601 C 133 604,127 607,126 609 C 124 610,120 612,116 614 C 113 616,108 618,106 620 C 103 622,99 624,96 626 C 80 634,59 654,50 667 C 49 669,45 674,42 678 C 37 687,35 690,28 707 C 27 709,25 716,23 723 L 21 734 21 812 C 21 854,21 891,22 894 C 22 896,23 902,24 906 C 26 917,29 926,35 939 C 38 945,40 951,40 951 C 40 951,42 954,44 957 C 47 960,49 964,50 965 C 58 977,83 998,102 1007 C 107 1009,113 1013,115 1014 C 117 1016,122 1019,126 1021 C 129 1022,134 1025,137 1027 C 140 1029,145 1031,147 1033 C 149 1034,154 1037,158 1039 C 167 1045,168 1046,171 1047 C 172 1048,175 1049,178 1051 C 180 1053,185 1056,189 1058 C 193 1059,198 1062,200 1063 C 201 1064,204 1066,206 1067 C 208 1068,211 1070,214 1072 C 216 1073,218 1074,219 1075 C 220 1075,223 1077,225 1079 C 227 1080,232 1083,234 1084 C 237 1085,242 1088,245 1090 C 249 1093,254 1096,257 1097 C 260 1099,265 1102,268 1104 C 271 1106,275 1108,278 1109 C 281 1111,286 1113,289 1115 C 296 1120,309 1127,310 1127 C 310 1127,311 1128,312 1129 C 313 1130,316 1132,320 1133 C 324 1135,329 1138,332 1140 C 339 1144,343 1147,351 1151 C 365 1159,369 1161,377 1166 C 382 1169,385 1171,386 1171 C 386 1171,391 1173,396 1176 C 411 1186,424 1193,431 1197 C 435 1199,440 1202,442 1203 C 450 1208,453 1210,455 1211 C 456 1212,460 1214,463 1216 C 474 1223,476 1224,480 1227 C 496 1235,509 1241,519 1243 C 521 1244,523 1245,524 1246 C 525 1246,527 1247,529 1247 C 531 1247,535 1248,538 1248 C 546 1250,583 1251,591 1249 C 594 1248,599 1247,602 1247 C 605 1247,610 1245,612 1244 C 624 1240,639 1234,641 1233 C 646 1230,648 1229,654 1226 C 657 1224,664 1220,669 1217 C 674 1214,679 1211,679 1211 C 680 1211,684 1209,688 1206 C 693 1203,700 1199,703 1197 C 707 1196,711 1193,713 1192 C 715 1190,719 1188,723 1186 C 727 1184,730 1182,732 1181 C 733 1180,739 1176,745 1173 C 751 1170,758 1166,759 1165 C 760 1164,765 1161,770 1159 C 774 1157,778 1154,779 1153 C 780 1153,783 1151,786 1149 C 790 1148,796 1144,800 1142 C 803 1139,810 1136,814 1134 C 817 1132,821 1130,823 1129 C 824 1128,829 1125,833 1123 C 838 1120,844 1117,847 1115 C 849 1113,852 1111,854 1111 C 855 1110,859 1108,863 1106 C 867 1103,871 1101,873 1100 C 875 1099,882 1095,889 1091 C 896 1087,902 1083,903 1083 C 904 1082,909 1080,913 1077 C 918 1074,922 1071,923 1071 C 924 1070,927 1069,930 1067 C 940 1060,942 1060,946 1057 C 948 1056,951 1055,951 1055 C 952 1055,953 1054,954 1053 C 956 1052,960 1050,964 1047 C 967 1045,973 1042,976 1041 C 978 1039,984 1035,988 1033 C 992 1031,997 1028,1000 1026 C 1002 1025,1006 1023,1010 1021 C 1013 1019,1018 1016,1021 1014 C 1023 1013,1026 1011,1026 1011 C 1027 1011,1029 1010,1032 1008 C 1035 1006,1039 1004,1040 1003 C 1041 1002,1044 1001,1046 1000 C 1048 998,1053 996,1056 994 C 1069 987,1086 968,1096 951 C 1098 947,1101 944,1101 943 C 1103 943,1106 935,1109 924 C 1111 918,1113 912,1113 910 C 1114 909,1115 904,1115 900 C 1116 890,1116 785,1115 779 C 1114 773,1111 770,1104 769 C 1097 769,1093 770,1082 778 C 1078 781,1073 784,1072 785 C 1070 785,1067 787,1064 789 C 1062 790,1057 793,1053 795 C 1049 797,1044 800,1042 801 C 1040 803,1035 805,1032 807 C 1028 809,1023 811,1020 813 C 1018 815,1012 818,1008 820 C 1004 822,998 826,996 827 C 993 829,987 832,984 834 C 980 837,974 839,972 841 C 970 842,965 845,962 847 C 958 849,955 851,954 852 C 953 852,949 855,944 857 C 940 859,934 862,932 864 C 929 866,924 869,920 871 C 917 873,910 876,906 879 C 902 881,897 884,896 885 C 894 885,890 887,888 889 C 886 891,881 893,878 895 C 875 896,870 899,868 901 C 864 903,858 907,847 913 C 845 914,841 917,836 919 C 832 921,828 924,827 924 C 826 925,823 926,820 928 C 812 933,791 945,790 945 C 790 945,787 947,784 948 C 782 950,775 954,770 957 C 758 963,736 976,730 979 C 728 981,722 984,718 986 C 715 988,708 992,704 995 C 699 998,695 1000,695 1000 C 694 1000,690 1002,687 1004 C 679 1009,668 1016,656 1022 C 652 1024,649 1026,648 1026 C 647 1028,638 1032,625 1038 C 621 1040,617 1041,616 1041 C 615 1041,613 1042,611 1043 C 605 1045,590 1048,574 1049 C 552 1050,537 1048,518 1040 C 515 1039,510 1037,508 1037 C 506 1036,503 1035,500 1033 C 498 1031,493 1029,491 1028 C 489 1027,485 1025,483 1024 C 474 1017,468 1014,462 1011 C 459 1010,454 1007,452 1005 C 449 1004,444 1000,440 998 C 436 996,432 994,430 992 C 429 991,423 988,417 984 C 403 977,395 972,390 970 C 382 964,377 961,371 958 C 364 955,362 954,358 951 C 357 950,353 948,350 946 C 347 945,343 942,340 940 C 338 939,334 936,331 935 C 329 934,326 932,325 931 C 324 930,322 929,320 928 C 307 921,299 916,296 915 C 294 913,290 911,286 909 C 273 900,269 897,263 891 C 256 884,249 872,247 864 C 247 862,246 859,245 858 C 240 848,240 782,245 770 C 246 768,248 764,249 760 C 255 745,266 733,283 725 C 286 723,290 721,292 720 C 304 713,309 710,312 708 C 315 706,320 704,324 702 C 327 700,333 697,335 695 C 337 694,343 690,348 688 C 353 685,357 682,358 681 C 359 681,363 678,368 676 C 372 674,378 670,380 669 C 383 667,389 664,392 662 C 396 660,401 657,404 656 C 406 654,411 651,415 649 C 419 647,423 645,425 644 C 426 643,428 642,430 641 C 431 640,434 638,437 636 C 440 635,444 633,446 632 C 447 630,454 626,460 623 C 466 619,473 616,474 615 C 476 614,480 611,484 609 C 488 607,497 602,504 597 C 512 593,522 587,527 584 C 532 582,537 579,539 577 C 540 576,544 574,547 572 C 549 571,555 568,559 566 C 562 563,569 560,572 558 C 576 556,580 554,582 553 C 583 552,587 549,592 547 C 596 545,600 542,601 541 C 602 541,607 538,612 535 C 617 533,624 529,626 527 C 628 526,633 523,636 521 C 640 520,645 517,647 516 C 649 514,656 510,661 508 C 666 505,671 502,672 501 C 674 500,677 498,680 497 C 693 490,705 480,709 475 C 713 467,713 453,709 445 C 707 443,696 433,694 433 C 694 433,691 431,689 429 C 686 427,682 425,681 424 C 679 423,673 419,667 416 C 661 412,654 408,651 407 C 648 405,645 403,644 402 C 640 399,626 393,610 387 C 603 385,574 381,566 381 C 565 381,560 382,554 382"/></svg>
